<svg width="151" height="30" viewBox="0 0 151 30" fill="none" xmlns="http://www.w3.org/2000/svg">
<g filter="url(#filter0_di_1_1383)">
<g filter="url(#filter1_di_1_1383)">
<path d="M52.702 20L51.622 16.922H46.618L45.556 20H43.918L48.382 7.4H49.84L54.304 20H52.702ZM51.136 15.536L49.516 10.874C49.312 10.286 49.18 9.86 49.12 9.596C48.988 10.064 48.856 10.49 48.724 10.874L47.086 15.536H51.136ZM59.8989 20.216C58.7229 20.216 57.7929 19.796 57.1089 18.956C56.4249 18.104 56.0829 16.922 56.0829 15.41C56.0829 13.898 56.4249 12.716 57.1089 11.864C57.8049 11.012 58.7589 10.586 59.9709 10.586C61.6029 10.586 62.6769 11.3 63.1929 12.728L61.7169 13.268C61.4049 12.452 60.8289 12.044 59.9889 12.044C59.2209 12.044 58.6449 12.338 58.2609 12.926C57.8769 13.514 57.6849 14.342 57.6849 15.41C57.6849 16.466 57.8769 17.288 58.2609 17.876C58.6449 18.452 59.2029 18.74 59.9349 18.74C60.8949 18.74 61.5189 18.284 61.8069 17.372L63.2649 17.858C63.0369 18.614 62.6289 19.196 62.0409 19.604C61.4649 20.012 60.7509 20.216 59.8989 20.216ZM68.8989 20.216C67.7229 20.216 66.7929 19.796 66.1089 18.956C65.4249 18.104 65.0829 16.922 65.0829 15.41C65.0829 13.898 65.4249 12.716 66.1089 11.864C66.8049 11.012 67.7589 10.586 68.9709 10.586C70.6029 10.586 71.6769 11.3 72.1929 12.728L70.7169 13.268C70.4049 12.452 69.8289 12.044 68.9889 12.044C68.2209 12.044 67.6449 12.338 67.2609 12.926C66.8769 13.514 66.6849 14.342 66.6849 15.41C66.6849 16.466 66.8769 17.288 67.2609 17.876C67.6449 18.452 68.2029 18.74 68.9349 18.74C69.8949 18.74 70.5189 18.284 70.8069 17.372L72.2649 17.858C72.0369 18.614 71.6289 19.196 71.0409 19.604C70.4649 20.012 69.7509 20.216 68.8989 20.216ZM80.0271 20V19.118C79.4631 19.85 78.6891 20.216 77.7051 20.216C76.5891 20.216 75.7491 19.892 75.1851 19.244C74.6331 18.596 74.3571 17.552 74.3571 16.112V10.802H75.9231V16.346C75.9231 17.174 76.0971 17.786 76.4451 18.182C76.8051 18.566 77.2911 18.758 77.9031 18.758C79.3191 18.758 80.0271 17.966 80.0271 16.382V10.802H81.5931V20H80.0271ZM86.5697 20L83.9957 7.4H85.6337L87.1817 15.608C87.2897 16.148 87.3677 16.598 87.4157 16.958C87.4157 16.946 87.5297 16.502 87.7577 15.626L89.9897 7.4H91.2317L93.4817 15.608C93.6257 16.148 93.7217 16.556 93.7697 16.832C93.8177 16.52 93.8957 16.106 94.0037 15.59L95.7137 7.4H97.3157L94.5797 20H93.3377L90.9077 11.396C90.7277 10.736 90.6197 10.322 90.5837 10.154C90.5237 10.478 90.4217 10.892 90.2777 11.396L87.8477 20H86.5697ZM103.253 20.216C102.005 20.216 101.009 19.772 100.265 18.884C99.5329 17.984 99.1669 16.82 99.1669 15.392C99.1669 13.892 99.5389 12.716 100.283 11.864C101.027 11.012 102.017 10.586 103.253 10.586C104.357 10.586 105.263 10.958 105.971 11.702C106.691 12.434 107.051 13.52 107.051 14.96C107.051 15.296 107.033 15.644 106.997 16.004H100.769C100.829 16.844 101.087 17.522 101.543 18.038C102.011 18.542 102.593 18.794 103.289 18.794C104.057 18.794 104.717 18.518 105.269 17.966L106.223 19.028C105.431 19.82 104.441 20.216 103.253 20.216ZM100.751 14.672H105.467C105.455 13.724 105.227 13.04 104.783 12.62C104.351 12.188 103.841 11.972 103.253 11.972C102.545 11.972 101.963 12.2 101.507 12.656C101.051 13.1 100.799 13.772 100.751 14.672ZM114.666 20V19.154C113.91 19.862 113.04 20.216 112.056 20.216C111.084 20.216 110.304 19.952 109.716 19.424C109.14 18.884 108.852 18.116 108.852 17.12C108.852 16.124 109.182 15.368 109.842 14.852C110.502 14.336 111.318 14.078 112.29 14.078C113.178 14.078 113.97 14.276 114.666 14.672V14.024C114.666 13.256 114.492 12.722 114.144 12.422C113.808 12.11 113.316 11.954 112.668 11.954C111.744 11.954 110.85 12.26 109.986 12.872L109.536 11.558C110.52 10.91 111.63 10.586 112.866 10.586C115.05 10.586 116.142 11.69 116.142 13.898V20H114.666ZM112.29 18.83C113.19 18.83 113.982 18.428 114.666 17.624V16.04C114.006 15.632 113.286 15.428 112.506 15.428C111.87 15.428 111.348 15.572 110.94 15.86C110.532 16.148 110.328 16.568 110.328 17.12C110.328 17.636 110.496 18.05 110.832 18.362C111.18 18.674 111.666 18.83 112.29 18.83ZM121.351 20.216C120.055 20.216 119.407 19.484 119.407 18.02V12.17H117.913V10.802H119.407V7.76L120.973 7.004V10.802H123.241V12.17H120.973V17.498C120.973 17.906 121.039 18.218 121.171 18.434C121.303 18.65 121.555 18.758 121.927 18.758C122.335 18.758 122.791 18.596 123.295 18.272L123.115 19.802C122.587 20.078 121.999 20.216 121.351 20.216ZM125.599 20V7.724L127.165 7.004V11.756C127.729 10.976 128.521 10.586 129.541 10.586C130.621 10.586 131.437 10.916 131.989 11.576C132.553 12.224 132.835 13.268 132.835 14.708V20H131.269V14.438C131.269 13.61 131.089 13.004 130.729 12.62C130.381 12.224 129.901 12.026 129.289 12.026C127.873 12.026 127.165 12.818 127.165 14.402V20H125.599ZM139.288 20.216C138.04 20.216 137.044 19.772 136.3 18.884C135.568 17.984 135.202 16.82 135.202 15.392C135.202 13.892 135.574 12.716 136.318 11.864C137.062 11.012 138.052 10.586 139.288 10.586C140.392 10.586 141.298 10.958 142.006 11.702C142.726 12.434 143.086 13.52 143.086 14.96C143.086 15.296 143.068 15.644 143.032 16.004H136.804C136.864 16.844 137.122 17.522 137.578 18.038C138.046 18.542 138.628 18.794 139.324 18.794C140.092 18.794 140.752 18.518 141.304 17.966L142.258 19.028C141.466 19.82 140.476 20.216 139.288 20.216ZM136.786 14.672H141.502C141.49 13.724 141.262 13.04 140.818 12.62C140.386 12.188 139.876 11.972 139.288 11.972C138.58 11.972 137.998 12.2 137.542 12.656C137.086 13.1 136.834 13.772 136.786 14.672ZM145.428 20V10.802H146.994V12.008C147.426 11.06 148.152 10.586 149.172 10.586C149.748 10.586 150.222 10.742 150.594 11.054L150.36 12.53C149.976 12.266 149.538 12.134 149.046 12.134C148.506 12.134 148.026 12.344 147.606 12.764C147.198 13.184 146.994 13.868 146.994 14.816V20H145.428Z" fill="white"/>
</g>
<g clip-path="url(#clip0_1_1383)">
<path d="M15 20C13.4087 20 11.8826 19.3679 10.7574 18.2426C9.63214 17.1174 9 15.5913 9 14C9 12.4087 9.63214 10.8826 10.7574 9.75736C11.8826 8.63214 13.4087 8 15 8C16.5913 8 18.1174 8.63214 19.2426 9.75736C20.3679 10.8826 21 12.4087 21 14C21 15.5913 20.3679 17.1174 19.2426 18.2426C18.1174 19.3679 16.5913 20 15 20ZM14 3H16V6H14V3ZM14 22H16V25H14V22ZM6.515 6.929L7.929 5.515L10.05 7.636L8.636 9.05L6.515 6.93V6.929ZM19.95 20.364L21.364 18.95L23.485 21.071L22.071 22.485L19.95 20.364ZM22.071 5.514L23.485 6.929L21.364 9.05L19.95 7.636L22.071 5.515V5.514ZM8.636 18.95L10.05 20.364L7.929 22.485L6.515 21.071L8.636 18.95ZM26 13V15H23V13H26ZM7 13V15H4V13H7Z" fill="white"/>
</g>
</g>
<defs>
<filter id="filter0_di_1_1383" x="0" y="2" width="150.594" height="28" filterUnits="userSpaceOnUse" color-interpolation-filters="sRGB">
<feFlood flood-opacity="0" result="BackgroundImageFix"/>
<feColorMatrix in="SourceAlpha" type="matrix" values="0 0 0 0 0 0 0 0 0 0 0 0 0 0 0 0 0 0 127 0" result="hardAlpha"/>
<feOffset dx="-2" dy="3"/>
<feGaussianBlur stdDeviation="0.5"/>
<feColorMatrix type="matrix" values="0 0 0 0 0 0 0 0 0 0 0 0 0 0 0 0 0 0 0.1 0"/>
<feBlend mode="normal" in2="BackgroundImageFix" result="effect1_dropShadow_1_1383"/>
<feBlend mode="normal" in="SourceGraphic" in2="effect1_dropShadow_1_1383" result="shape"/>
<feColorMatrix in="SourceAlpha" type="matrix" values="0 0 0 0 0 0 0 0 0 0 0 0 0 0 0 0 0 0 127 0" result="hardAlpha"/>
<feOffset dx="-1" dy="1"/>
<feGaussianBlur stdDeviation="1"/>
<feComposite in2="hardAlpha" operator="arithmetic" k2="-1" k3="1"/>
<feColorMatrix type="matrix" values="0 0 0 0 1 0 0 0 0 1 0 0 0 0 1 0 0 0 0.25 0"/>
<feBlend mode="normal" in2="shape" result="effect2_innerShadow_1_1383"/>
</filter>
<filter id="filter1_di_1_1383" x="40.918" y="7.004" width="109.676" height="17.212" filterUnits="userSpaceOnUse" color-interpolation-filters="sRGB">
<feFlood flood-opacity="0" result="BackgroundImageFix"/>
<feColorMatrix in="SourceAlpha" type="matrix" values="0 0 0 0 0 0 0 0 0 0 0 0 0 0 0 0 0 0 127 0" result="hardAlpha"/>
<feOffset dx="-2" dy="3"/>
<feGaussianBlur stdDeviation="0.5"/>
<feColorMatrix type="matrix" values="0 0 0 0 0 0 0 0 0 0 0 0 0 0 0 0 0 0 0.1 0"/>
<feBlend mode="normal" in2="BackgroundImageFix" result="effect1_dropShadow_1_1383"/>
<feBlend mode="normal" in="SourceGraphic" in2="effect1_dropShadow_1_1383" result="shape"/>
<feColorMatrix in="SourceAlpha" type="matrix" values="0 0 0 0 0 0 0 0 0 0 0 0 0 0 0 0 0 0 127 0" result="hardAlpha"/>
<feOffset dx="-1" dy="1"/>
<feGaussianBlur stdDeviation="1"/>
<feComposite in2="hardAlpha" operator="arithmetic" k2="-1" k3="1"/>
<feColorMatrix type="matrix" values="0 0 0 0 1 0 0 0 0 1 0 0 0 0 1 0 0 0 0.25 0"/>
<feBlend mode="normal" in2="shape" result="effect2_innerShadow_1_1383"/>
</filter>
<clipPath id="clip0_1_1383">
<rect width="24" height="24" fill="white" transform="translate(3 2)"/>
</clipPath>
</defs>
</svg>
