<svg width="24" height="24" viewBox="0 0 24 24" fill="none" xmlns="http://www.w3.org/2000/svg">
<g clip-path="url(#clip0_1_2026)">
<path d="M15.9999 18V16H16.9999C17.621 15.9997 18.2335 15.8547 18.7889 15.5766C19.3442 15.2984 19.8272 14.8948 20.1995 14.3976C20.5718 13.9005 20.8232 13.3234 20.9338 12.7123C21.0444 12.1011 21.0111 11.4725 20.8367 10.8764C20.6622 10.2803 20.3513 9.73306 19.9286 9.27795C19.506 8.82284 18.9831 8.47242 18.4015 8.25444C17.8199 8.03645 17.1956 7.95691 16.5779 8.02209C15.9602 8.08728 15.3662 8.29541 14.8429 8.63C14.5949 7.57362 14.0651 6.60426 13.3099 5.82513C12.5546 5.046 11.6022 4.48627 10.5541 4.20552C9.50592 3.92478 8.40126 3.93353 7.35769 4.23085C6.31412 4.52817 5.37071 5.10293 4.62791 5.89392C3.8851 6.68492 3.37071 7.66256 3.1395 8.72273C2.90828 9.78291 2.9689 10.8859 3.3149 11.9144C3.6609 12.9429 4.27932 13.8582 5.10433 14.5631C5.92934 15.2679 6.93005 15.7358 7.99991 15.917V17.939C5.98102 17.6841 4.1351 16.6696 2.83779 15.1018C1.54048 13.5341 0.88927 11.5309 1.01669 9.50001C1.14411 7.46909 2.04058 5.56303 3.52366 4.16971C5.00675 2.7764 6.965 2.00053 8.99991 2C10.4216 1.99939 11.8178 2.37774 13.0446 3.0961C14.2715 3.81447 15.2847 4.84687 15.9799 6.087C16.7988 5.94602 17.638 5.97665 18.4444 6.17696C19.2508 6.37727 20.0068 6.74289 20.6645 7.25065C21.3222 7.75842 21.8673 8.39726 22.2652 9.1267C22.6631 9.85613 22.9052 10.6603 22.9761 11.4881C23.047 12.316 22.9451 13.1496 22.677 13.9361C22.4089 14.7225 21.9804 15.4447 21.4185 16.0569C20.8567 16.6691 20.1739 17.1579 19.4132 17.4924C18.6526 17.8269 17.8308 17.9997 16.9999 18H15.9999ZM10.2319 18.732L11.9999 16.964L13.7679 18.732C14.1175 19.0817 14.3555 19.5271 14.4519 20.0121C14.5483 20.497 14.4988 20.9996 14.3096 21.4564C14.1203 21.9132 13.7999 22.3036 13.3888 22.5783C12.9777 22.8529 12.4943 22.9995 11.9999 22.9995C11.5055 22.9995 11.0222 22.8529 10.6111 22.5783C10.1999 22.3036 9.87952 21.9132 9.69028 21.4564C9.50104 20.9996 9.45149 20.497 9.5479 20.0121C9.64431 19.5271 9.88235 19.0817 10.2319 18.732Z" fill="#838BAA"/>
</g>
<defs>
<clipPath id="clip0_1_2026">
<rect width="24" height="24" fill="white"/>
</clipPath>
</defs>
</svg>
