<svg width="128" height="89" viewBox="0 0 128 89" fill="none" xmlns="http://www.w3.org/2000/svg">
<g opacity="0.67" filter="url(#filter0_f_1_1400)">
<path d="M71.4554 18.4353C75.706 22.2715 85.681 26.3392 81.8449 30.5898C78.0088 34.8404 56.0823 46.9826 46.9528 42.2893C42.7022 38.4531 50.761 26.1013 54.5971 21.8507C58.4333 17.6001 67.2048 14.5992 71.4554 18.4353Z" fill="url(#paint0_linear_1_1400)" fill-opacity="0.3"/>
</g>
<g filter="url(#filter1_ii_1_1400)">
<path fill-rule="evenodd" clip-rule="evenodd" d="M64.8776 35.0016V35.002H56.5314C52.3772 35.002 49.0095 31.6343 49.0095 27.4801C49.0095 23.3259 52.3772 19.9582 56.5314 19.9582H56.9435C58.4016 19.9582 59.7678 20.3516 60.9419 21.0379C62.4681 16.5161 66.7444 13.2603 71.7812 13.2603H72.3479C78.3516 13.2603 83.2185 18.1273 83.2185 24.131C83.2185 30.1347 78.3516 35.0016 72.3479 35.0016H64.8776Z" fill="white"/>
</g>
<path d="M71 28.522L77.6154 21.7266L76.0769 26.897L79 27.7834L72.0769 34.7266L73.7692 29.5561L71 28.522Z" fill="url(#paint1_radial_1_1400)"/>
<path d="M62 36.522L68.6154 29.7266L67.0769 34.897L70 35.7834L63.0769 42.7266L64.7692 37.5561L62 36.522Z" fill="url(#paint2_radial_1_1400)"/>
<path d="M53 30.522L59.6154 23.7266L58.0769 28.897L61 29.7834L54.0769 36.7266L55.7692 31.5561L53 30.522Z" fill="url(#paint3_radial_1_1400)"/>
<path d="M73.9824 37.4048L74.2832 38.8016C74.4494 39.5731 73.9752 40.3945 73.224 40.6363C72.4728 40.8781 71.7292 40.4487 71.563 39.6773C71.3969 38.9059 71.8711 38.0845 72.6223 37.8427L73.9824 37.4048Z" fill="url(#paint4_radial_1_1400)"/>
<path d="M58.9824 37.4048L59.2832 38.8016C59.4494 39.5731 58.9752 40.3945 58.224 40.6363C57.4728 40.8781 56.7292 40.4487 56.563 39.6773C56.3969 38.9059 56.8711 38.0845 57.6223 37.8427L58.9824 37.4048Z" fill="url(#paint5_radial_1_1400)"/>
<path d="M50.9824 37.4048L51.2832 38.8016C51.4494 39.5731 50.9752 40.3945 50.224 40.6363C49.4728 40.8781 48.7292 40.4487 48.563 39.6773C48.3969 38.9059 48.8711 38.0845 49.6223 37.8427L50.9824 37.4048Z" fill="url(#paint6_radial_1_1400)"/>
<path d="M54.9824 42.4048L55.2832 43.8016C55.4494 44.5731 54.9752 45.3945 54.224 45.6363C53.4728 45.8781 52.7292 45.4487 52.563 44.6773C52.3969 43.9059 52.8711 43.0845 53.6223 42.8427L54.9824 42.4048Z" fill="url(#paint7_radial_1_1400)"/>
<path d="M61.9824 42.4048L62.2832 43.8016C62.4494 44.5731 61.9752 45.3945 61.224 45.6363C60.4728 45.8781 59.7292 45.4487 59.563 44.6773C59.3969 43.9059 59.8711 43.0845 60.6223 42.8427L61.9824 42.4048Z" fill="url(#paint8_radial_1_1400)"/>
<path d="M68.9824 42.4048L69.2832 43.8016C69.4494 44.5731 68.9752 45.3945 68.224 45.6363C67.4728 45.8781 66.7292 45.4487 66.563 44.6773C66.3969 43.9059 66.8711 43.0845 67.6223 42.8427L68.9824 42.4048Z" fill="url(#paint9_radial_1_1400)"/>
<defs>
<filter id="filter0_f_1_1400" x="0.747314" y="-28.3303" width="126.959" height="116.681" filterUnits="userSpaceOnUse" color-interpolation-filters="sRGB">
<feFlood flood-opacity="0" result="BackgroundImageFix"/>
<feBlend mode="normal" in="SourceGraphic" in2="BackgroundImageFix" result="shape"/>
<feGaussianBlur stdDeviation="22.5" result="effect1_foregroundBlur_1_1400"/>
</filter>
<filter id="filter1_ii_1_1400" x="31.0095" y="-1.73969" width="60.209" height="47.7417" filterUnits="userSpaceOnUse" color-interpolation-filters="sRGB">
<feFlood flood-opacity="0" result="BackgroundImageFix"/>
<feBlend mode="normal" in="SourceGraphic" in2="BackgroundImageFix" result="shape"/>
<feColorMatrix in="SourceAlpha" type="matrix" values="0 0 0 0 0 0 0 0 0 0 0 0 0 0 0 0 0 0 127 0" result="hardAlpha"/>
<feOffset dx="8" dy="-15"/>
<feGaussianBlur stdDeviation="15"/>
<feComposite in2="hardAlpha" operator="arithmetic" k2="-1" k3="1"/>
<feColorMatrix type="matrix" values="0 0 0 0 0 0 0 0 0 0 0 0 0 0 0 0 0 0 0.2 0"/>
<feBlend mode="normal" in2="shape" result="effect1_innerShadow_1_1400"/>
<feColorMatrix in="SourceAlpha" type="matrix" values="0 0 0 0 0 0 0 0 0 0 0 0 0 0 0 0 0 0 127 0" result="hardAlpha"/>
<feOffset dx="-18" dy="11"/>
<feGaussianBlur stdDeviation="15"/>
<feComposite in2="hardAlpha" operator="arithmetic" k2="-1" k3="1"/>
<feColorMatrix type="matrix" values="0 0 0 0 1 0 0 0 0 1 0 0 0 0 1 0 0 0 1 0"/>
<feBlend mode="normal" in2="effect1_innerShadow_1_1400" result="effect2_innerShadow_1_1400"/>
</filter>
<linearGradient id="paint0_linear_1_1400" x1="51.467" y1="44.1688" x2="76.1569" y2="16.4602" gradientUnits="userSpaceOnUse">
<stop stop-color="#254659"/>
<stop offset="1" stop-color="#023553"/>
</linearGradient>
<radialGradient id="paint1_radial_1_1400" cx="0" cy="0" r="1" gradientUnits="userSpaceOnUse" gradientTransform="translate(76.5915 24.6835) rotate(119.107) scale(11.4947 9.81979)">
<stop stop-color="#FFF72C"/>
<stop offset="1" stop-color="#DF7800"/>
</radialGradient>
<radialGradient id="paint2_radial_1_1400" cx="0" cy="0" r="1" gradientUnits="userSpaceOnUse" gradientTransform="translate(67.5915 32.6835) rotate(119.107) scale(11.4947 9.81979)">
<stop stop-color="#FFF72C"/>
<stop offset="1" stop-color="#DF7800"/>
</radialGradient>
<radialGradient id="paint3_radial_1_1400" cx="0" cy="0" r="1" gradientUnits="userSpaceOnUse" gradientTransform="translate(58.5915 26.6835) rotate(119.107) scale(11.4947 9.81979)">
<stop stop-color="#FFF72C"/>
<stop offset="1" stop-color="#DF7800"/>
</radialGradient>
<radialGradient id="paint4_radial_1_1400" cx="0" cy="0" r="1" gradientUnits="userSpaceOnUse" gradientTransform="translate(71.4695 40.1299) rotate(-34.1445) scale(3.73169 2.74928)">
<stop stop-color="#008CB9"/>
<stop offset="1" stop-color="#5CC4E5"/>
</radialGradient>
<radialGradient id="paint5_radial_1_1400" cx="0" cy="0" r="1" gradientUnits="userSpaceOnUse" gradientTransform="translate(56.4695 40.1299) rotate(-34.1445) scale(3.73169 2.74928)">
<stop stop-color="#008CB9"/>
<stop offset="1" stop-color="#5CC4E5"/>
</radialGradient>
<radialGradient id="paint6_radial_1_1400" cx="0" cy="0" r="1" gradientUnits="userSpaceOnUse" gradientTransform="translate(48.4695 40.1299) rotate(-34.1445) scale(3.73169 2.74928)">
<stop stop-color="#008CB9"/>
<stop offset="1" stop-color="#5CC4E5"/>
</radialGradient>
<radialGradient id="paint7_radial_1_1400" cx="0" cy="0" r="1" gradientUnits="userSpaceOnUse" gradientTransform="translate(52.4695 45.1299) rotate(-34.1445) scale(3.73169 2.74928)">
<stop stop-color="#008CB9"/>
<stop offset="1" stop-color="#5CC4E5"/>
</radialGradient>
<radialGradient id="paint8_radial_1_1400" cx="0" cy="0" r="1" gradientUnits="userSpaceOnUse" gradientTransform="translate(59.4695 45.1299) rotate(-34.1445) scale(3.73169 2.74928)">
<stop stop-color="#008CB9"/>
<stop offset="1" stop-color="#5CC4E5"/>
</radialGradient>
<radialGradient id="paint9_radial_1_1400" cx="0" cy="0" r="1" gradientUnits="userSpaceOnUse" gradientTransform="translate(66.4695 45.1299) rotate(-34.1445) scale(3.73169 2.74928)">
<stop stop-color="#008CB9"/>
<stop offset="1" stop-color="#5CC4E5"/>
</radialGradient>
</defs>
</svg>
