<svg width="25" height="26" viewBox="0 0 25 26" fill="none" xmlns="http://www.w3.org/2000/svg">
<g clip-path="url(#clip0_1_2334)" filter="url(#filter0_di_1_2334)">
<path d="M11.5 17H5V15H11.5C12.1387 15.0002 12.7653 15.1752 13.3116 15.5061C13.858 15.8369 14.3035 16.311 14.5997 16.8769C14.8959 17.4428 15.0316 18.079 14.992 18.7165C14.9525 19.3541 14.7393 19.9686 14.3755 20.4936C14.0116 21.0186 13.5111 21.434 12.928 21.6949C12.3449 21.9557 11.7016 22.052 11.0677 21.9734C10.4338 21.8947 9.83356 21.6441 9.33194 21.2486C8.83032 20.8532 8.44647 20.328 8.222 19.73L10.095 19.027C10.1912 19.2833 10.3557 19.5084 10.5706 19.6779C10.7856 19.8474 11.0428 19.9548 11.3145 19.9886C11.5862 20.0223 11.8619 19.9811 12.1118 19.8693C12.3617 19.7575 12.5762 19.5795 12.7322 19.3545C12.8881 19.1295 12.9795 18.8661 12.9965 18.5929C13.0135 18.3197 12.9553 18.047 12.8284 17.8045C12.7015 17.5619 12.5106 17.3588 12.2764 17.2169C12.0423 17.0751 11.7738 17.0001 11.5 17ZM6 11H19.5C20.1387 11.0002 20.7653 11.1752 21.3116 11.5061C21.858 11.8369 22.3035 12.311 22.5997 12.8769C22.8959 13.4428 23.0316 14.079 22.992 14.7165C22.9525 15.3541 22.7393 15.9686 22.3755 16.4936C22.0116 17.0186 21.5111 17.434 20.928 17.6949C20.3449 17.9557 19.7016 18.052 19.0677 17.9734C18.4338 17.8947 17.8336 17.6441 17.3319 17.2486C16.8303 16.8532 16.4465 16.328 16.222 15.73L18.095 15.027C18.1912 15.2833 18.3557 15.5084 18.5706 15.6779C18.7856 15.8474 19.0428 15.9548 19.3145 15.9886C19.5862 16.0223 19.8619 15.981 20.1118 15.8693C20.3617 15.7575 20.5762 15.5795 20.7322 15.3545C20.8881 15.1295 20.9795 14.8661 20.9965 14.5929C21.0135 14.3197 20.9553 14.047 20.8284 13.8045C20.7015 13.5619 20.5106 13.3588 20.2764 13.2169C20.0423 13.0751 19.7738 13.0001 19.5 13H6C5.20435 13 4.44129 12.6839 3.87868 12.1213C3.31607 11.5587 3 10.7956 3 10C3 9.20435 3.31607 8.44128 3.87868 7.87867C4.44129 7.31607 5.20435 7 6 7H14.5C14.7738 6.99988 15.0423 6.92485 15.2764 6.78304C15.5106 6.64123 15.7015 6.43805 15.8284 6.1955C15.9553 5.95296 16.0135 5.6803 15.9965 5.40708C15.9795 5.13385 15.8881 4.87047 15.7322 4.64549C15.5762 4.4205 15.3617 4.24247 15.1118 4.13071C14.8619 4.01894 14.5862 3.97769 14.3145 4.01143C14.0428 4.04517 13.7856 4.15261 13.5706 4.3221C13.3557 4.4916 13.1912 4.7167 13.095 4.973L11.222 4.271C11.5105 3.5038 12.059 2.86214 12.7719 2.45781C13.4849 2.05347 14.3171 1.91211 15.1236 2.05834C15.9301 2.20458 16.6597 2.62914 17.1853 3.25805C17.711 3.88696 17.9993 4.68036 18 5.5C18 6.42825 17.6313 7.31849 16.9749 7.97487C16.3185 8.63125 15.4283 9 14.5 9H6C5.73478 9 5.48043 9.10535 5.29289 9.29289C5.10536 9.48042 5 9.73478 5 10C5 10.2652 5.10536 10.5196 5.29289 10.7071C5.48043 10.8946 5.73478 11 6 11Z" fill="white"/>
</g>
<defs>
<filter id="filter0_di_1_2334" x="-2" y="0" width="27" height="28" filterUnits="userSpaceOnUse" color-interpolation-filters="sRGB">
<feFlood flood-opacity="0" result="BackgroundImageFix"/>
<feColorMatrix in="SourceAlpha" type="matrix" values="0 0 0 0 0 0 0 0 0 0 0 0 0 0 0 0 0 0 127 0" result="hardAlpha"/>
<feOffset dx="-2" dy="3"/>
<feGaussianBlur stdDeviation="0.5"/>
<feColorMatrix type="matrix" values="0 0 0 0 0 0 0 0 0 0 0 0 0 0 0 0 0 0 0.1 0"/>
<feBlend mode="normal" in2="BackgroundImageFix" result="effect1_dropShadow_1_2334"/>
<feBlend mode="normal" in="SourceGraphic" in2="effect1_dropShadow_1_2334" result="shape"/>
<feColorMatrix in="SourceAlpha" type="matrix" values="0 0 0 0 0 0 0 0 0 0 0 0 0 0 0 0 0 0 127 0" result="hardAlpha"/>
<feOffset dx="-1" dy="1"/>
<feGaussianBlur stdDeviation="1"/>
<feComposite in2="hardAlpha" operator="arithmetic" k2="-1" k3="1"/>
<feColorMatrix type="matrix" values="0 0 0 0 1 0 0 0 0 1 0 0 0 0 1 0 0 0 0.25 0"/>
<feBlend mode="normal" in2="shape" result="effect2_innerShadow_1_2334"/>
</filter>
<clipPath id="clip0_1_2334">
<rect width="24" height="24" fill="white" transform="translate(1)"/>
</clipPath>
</defs>
</svg>
